<?xml version="1.0" standalone="no"?>
<!DOCTYPE svg PUBLIC "-//W3C//DTD SVG 20010904//EN"
 "http://www.w3.org/TR/2001/REC-SVG-20010904/DTD/svg10.dtd">
<svg version="1.0" xmlns="http://www.w3.org/2000/svg"
 width="512.000000pt" height="512.000000pt" viewBox="0 0 512.000000 512.000000"
 preserveAspectRatio="xMidYMid meet">

<g transform="translate(0.000000,512.000000) scale(0.100000,-0.100000)"
fill="#000000" stroke="none">
<path d="M240 4547 c-49 -16 -133 -102 -148 -153 -18 -60 -18 -3608 0 -3668
16 -55 99 -138 154 -154 60 -18 4568 -18 4628 0 55 16 138 99 154 154 17 59
18 3608 0 3666 -6 22 -31 62 -55 88 -79 88 155 80 -2417 79 -1633 -1 -2291 -4
-2316 -12z m1440 -1987 l0 -1840 -695 0 -696 0 -24 25 -25 24 0 1791 0 1791
25 24 24 25 696 0 695 0 0 -1840z m1600 0 l0 -1840 -720 0 -720 0 0 1840 0
1840 720 0 720 0 0 -1840z m1575 1815 l25 -24 0 -1791 0 -1791 -25 -24 -24
-25 -696 0 -695 0 0 1840 0 1840 695 0 696 0 24 -25z"/>
<path d="M720 4160 l0 -80 240 0 240 0 0 80 0 80 -240 0 -240 0 0 -80z"/>
<path d="M839 3581 c-99 -32 -198 -116 -236 -202 -9 -22 -25 -40 -37 -43 -33
-8 -104 -73 -132 -122 -18 -31 -28 -65 -31 -108 -8 -91 16 -157 81 -221 83
-83 94 -85 476 -85 382 0 393 2 476 85 119 119 111 299 -18 410 -23 19 -52 38
-64 41 -12 3 -28 22 -38 44 -23 52 -86 122 -143 158 -97 61 -225 78 -334 43z
m222 -166 c68 -35 109 -86 133 -168 10 -36 16 -41 58 -52 54 -13 74 -27 94
-66 27 -54 7 -115 -49 -149 -30 -19 -52 -20 -337 -20 -285 0 -307 1 -337 20
-56 34 -76 95 -49 149 20 39 40 53 94 66 43 11 48 16 58 52 28 97 82 154 174
184 36 12 122 3 161 -16z"/>
<path d="M560 2480 l0 -160 80 0 80 0 0 160 0 160 -80 0 -80 0 0 -160z"/>
<path d="M880 2480 l0 -160 80 0 80 0 0 160 0 160 -80 0 -80 0 0 -160z"/>
<path d="M1200 2480 l0 -160 80 0 80 0 0 160 0 160 -80 0 -80 0 0 -160z"/>
<path d="M1385 1815 c-50 -49 -15 -135 55 -135 19 0 40 9 55 25 16 15 25 36
25 55 0 19 -9 40 -25 55 -15 16 -36 25 -55 25 -19 0 -40 -9 -55 -25z"/>
<path d="M560 1667 c-49 -16 -133 -102 -148 -153 -7 -23 -12 -67 -12 -98 l0
-56 80 0 80 0 0 55 c0 46 4 60 25 80 52 53 135 15 135 -61 0 -35 -11 -48 -160
-199 l-160 -161 0 -97 0 -97 240 0 240 0 0 80 0 80 -142 0 -142 0 121 123 c66
67 128 137 138 156 23 46 30 131 15 186 -18 64 -87 139 -147 159 -53 18 -112
19 -163 3z"/>
<path d="M1040 1601 l0 -81 80 0 80 0 0 -320 0 -320 80 0 81 0 -3 349 c-3 335
-4 351 -24 377 -44 60 -67 69 -185 72 l-109 4 0 -81z"/>
<path d="M2320 4160 l0 -80 240 0 240 0 0 80 0 80 -240 0 -240 0 0 -80z"/>
<path d="M2480 3516 c0 -83 0 -84 -27 -91 -16 -3 -48 -16 -71 -27 l-44 -21
-102 102 -101 101 -58 -57 -57 -58 101 -101 102 -102 -21 -44 c-11 -23 -24
-55 -27 -70 -7 -28 -8 -28 -91 -28 l-84 0 0 -80 0 -80 84 0 c83 0 84 0 91 -27
3 -16 16 -48 27 -71 l21 -44 -102 -102 -101 -101 57 -58 58 -57 101 101 102
102 44 -21 c23 -11 55 -24 71 -27 27 -7 27 -8 27 -91 l0 -84 80 0 80 0 0 84
c0 83 0 84 28 91 15 3 47 16 70 27 l44 21 102 -102 101 -101 58 57 57 58 -101
101 -102 102 21 44 c11 23 24 55 27 71 7 27 8 27 91 27 l84 0 0 80 0 80 -84 0
c-83 0 -84 0 -91 28 -3 15 -16 47 -27 70 l-21 44 102 102 101 101 -57 58 -58
57 -101 -101 -102 -102 -44 21 c-23 11 -55 24 -70 27 -28 7 -28 8 -28 91 l0
84 -80 0 -80 0 0 -84z m186 -264 c84 -43 128 -117 128 -212 0 -137 -96 -234
-234 -234 -138 0 -234 97 -234 234 0 112 62 195 174 231 38 13 123 3 166 -19z"/>
<path d="M2985 1815 c-50 -49 -15 -135 55 -135 41 0 80 39 80 80 0 41 -39 80
-80 80 -19 0 -40 -9 -55 -25z"/>
<path d="M2000 1601 l0 -81 80 0 80 0 0 -80 0 -80 -80 0 -80 0 0 -80 0 -80 80
0 80 0 0 -80 0 -80 -80 0 -80 0 0 -81 0 -81 109 4 c118 3 141 12 185 72 19 25
21 41 20 159 -1 163 -1 171 0 334 1 118 -1 134 -20 159 -44 60 -67 69 -185 72
l-109 4 0 -81z"/>
<path d="M2480 1601 l0 -81 80 0 80 0 0 -320 0 -320 80 0 81 0 -3 349 c-3 335
-4 351 -24 377 -44 60 -67 69 -185 72 l-109 4 0 -81z"/>
<path d="M3920 4160 l0 -80 240 0 240 0 0 80 0 80 -240 0 -240 0 0 -80z"/>
<path d="M3822 3586 c-141 -46 -231 -183 -219 -332 6 -78 36 -141 93 -198 l44
-45 -53 -53 c-116 -116 -117 -279 -3 -394 83 -82 94 -84 476 -84 382 0 393 2
476 85 119 119 111 299 -18 410 -23 19 -52 38 -64 41 -12 3 -28 21 -37 43 -37
82 -128 163 -223 197 -51 18 -52 19 -57 66 -13 104 -89 208 -185 250 -59 27
-171 33 -230 14z m168 -168 c33 -17 51 -35 68 -68 25 -49 28 -80 10 -80 -27 0
-138 -60 -177 -95 l-40 -37 -30 21 c-37 27 -66 98 -57 143 10 54 43 98 89 118
55 25 83 25 137 -2z m271 -323 c68 -35 109 -86 133 -168 10 -36 16 -41 58 -52
54 -13 74 -27 94 -66 27 -54 7 -115 -49 -149 -30 -19 -52 -20 -337 -20 -285 0
-307 1 -337 20 -56 34 -76 95 -49 149 20 39 40 53 94 66 43 11 48 16 58 52 28
97 82 154 174 184 36 12 122 3 161 -16z"/>
<path d="M4585 1815 c-50 -49 -15 -135 55 -135 41 0 80 39 80 80 0 41 -39 80
-80 80 -19 0 -40 -9 -55 -25z"/>
<path d="M3760 1667 c-49 -16 -133 -102 -148 -153 -7 -23 -12 -67 -12 -98 l0
-56 80 0 80 0 0 55 c0 46 4 60 25 80 52 53 135 15 135 -61 0 -35 -11 -48 -160
-199 l-160 -161 0 -97 0 -97 240 0 240 0 0 80 0 80 -142 0 -142 0 121 123 c66
67 128 137 138 156 23 46 30 131 15 186 -18 64 -87 139 -147 159 -53 18 -112
19 -163 3z"/>
<path d="M4240 1601 l0 -81 80 0 80 0 0 -80 0 -80 -80 0 -80 0 0 -80 0 -80 80
0 80 0 0 -80 0 -80 -80 0 -80 0 0 -81 0 -81 109 4 c118 3 141 12 185 72 19 25
21 41 20 159 -1 73 -1 148 -1 167 0 19 0 94 1 167 1 118 -1 134 -20 159 -44
60 -67 69 -185 72 l-109 4 0 -81z"/>
</g>
</svg>
